<svg width="197" height="197" viewBox="0 0 197 197" fill="none" xmlns="http://www.w3.org/2000/svg">
<g filter="url(#filter0_d)">
<circle cx="98.7245" cy="94.5107" r="66.8071" stroke="url(#paint0_linear)" stroke-width="2"/>
<circle cx="99.0521" cy="94.5113" r="55.1498" fill="white"/>
<path d="M67.606 101.646C66.922 101.646 66.334 101.4 65.842 100.908C65.35 100.416 65.104 99.828 65.104 99.144V98.154H67.48V98.622C67.48 98.958 67.498 99.15 67.534 99.198C67.582 99.234 67.774 99.252 68.11 99.252H75.04C75.376 99.252 75.562 99.234 75.598 99.198C75.646 99.15 75.67 98.958 75.67 98.622V96.984C75.67 96.648 75.646 96.462 75.598 96.426C75.562 96.378 75.376 96.354 75.04 96.354H67.606C66.922 96.354 66.334 96.108 65.842 95.616C65.35 95.124 65.104 94.536 65.104 93.852V91.188C65.104 90.504 65.35 89.916 65.842 89.424C66.334 88.932 66.922 88.686 67.606 88.686H75.562C76.246 88.686 76.834 88.932 77.326 89.424C77.818 89.916 78.064 90.504 78.064 91.188V92.178H75.67V91.71C75.67 91.374 75.646 91.188 75.598 91.152C75.562 91.104 75.376 91.08 75.04 91.08H68.11C67.774 91.08 67.582 91.104 67.534 91.152C67.498 91.188 67.48 91.374 67.48 91.71V93.348C67.48 93.684 67.498 93.87 67.534 93.906C67.582 93.942 67.774 93.96 68.11 93.96H75.562C76.246 93.96 76.834 94.212 77.326 94.716C77.818 95.208 78.064 95.796 78.064 96.48V99.144C78.064 99.828 77.818 100.416 77.326 100.908C76.834 101.4 76.246 101.646 75.562 101.646H67.606ZM85.2311 101.646C84.5471 101.646 83.9591 101.4 83.4671 100.908C82.9751 100.416 82.7291 99.828 82.7291 99.144V91.188C82.7291 90.504 82.9751 89.916 83.4671 89.424C83.9591 88.932 84.5471 88.686 85.2311 88.686H95.6531V91.08H85.7351C85.3991 91.08 85.2071 91.104 85.1591 91.152C85.1231 91.188 85.1051 91.374 85.1051 91.71V98.622C85.1051 98.958 85.1231 99.15 85.1591 99.198C85.2071 99.234 85.3991 99.252 85.7351 99.252H95.6531V101.646H85.2311ZM100.266 101.646V91.188C100.266 90.504 100.512 89.916 101.004 89.424C101.496 88.932 102.084 88.686 102.768 88.686H110.706C111.402 88.686 111.996 88.932 112.488 89.424C112.98 89.916 113.226 90.504 113.226 91.188V101.646H110.832V97.29H102.642V101.646H100.266ZM102.642 94.914H110.832V91.71C110.832 91.374 110.808 91.188 110.76 91.152C110.712 91.104 110.526 91.08 110.202 91.08H103.272C102.936 91.08 102.744 91.104 102.696 91.152C102.66 91.188 102.642 91.374 102.642 91.71V94.914ZM117.977 101.646V88.686H120.587L128.543 98.154V88.686H130.937V101.646H128.327L120.353 92.16V101.646H117.977Z" fill="#00102C"/>
</g>
<defs>
<filter id="filter0_d" x="0.91748" y="0.703613" width="195.614" height="195.614" filterUnits="userSpaceOnUse" color-interpolation-filters="sRGB">
<feFlood flood-opacity="0" result="BackgroundImageFix"/>
<feColorMatrix in="SourceAlpha" type="matrix" values="0 0 0 0 0 0 0 0 0 0 0 0 0 0 0 0 0 0 127 0"/>
<feOffset dy="4"/>
<feGaussianBlur stdDeviation="15"/>
<feColorMatrix type="matrix" values="0 0 0 0 1 0 0 0 0 1 0 0 0 0 1 0 0 0 0.2 0"/>
<feBlend mode="normal" in2="BackgroundImageFix" result="effect1_dropShadow"/>
<feBlend mode="normal" in="SourceGraphic" in2="effect1_dropShadow" result="shape"/>
</filter>
<linearGradient id="paint0_linear" x1="98.7245" y1="26.7036" x2="98.7245" y2="162.318" gradientUnits="userSpaceOnUse">
<stop stop-color="white"/>
<stop offset="0.501928" stop-color="#667794"/>
<stop offset="1" stop-color="white"/>
</linearGradient>
</defs>
</svg>
